<?xml version="1.0" encoding="utf-8"?>
<!-- Generator: Adobe Illustrator 21.1.0, SVG Export Plug-In . SVG Version: 6.00 Build 0)  -->
<svg version="1.1" id="Layer_1" xmlns="http://www.w3.org/2000/svg" xmlns:xlink="http://www.w3.org/1999/xlink" x="0px" y="0px"
	 viewBox="0 0 1000 1000" style="enable-background:new 0 0 1000 1000;" xml:space="preserve">
<style type="text/css">
	.st0{fill:#747474;}
</style>
<g>
	<path class="st0" d="M585,629c-56,0-112,0-168,0c-7.5-3.5-12.1-8.7-12.1-17.6c0.1-58.9,0.1-117.9,0.1-176.8
		c0-11.2,6.5-17.5,17.8-17.6c5.9,0,11.9,0,18.3,0c0-7,0-13.4,0-20c9.8,0,19.1,0,27.1,0c4.4-6,7.5-11.8,12.2-16.1
		c4-3.6,9.7-5.4,14.6-8c4,0,8,0,12,0c12.2,3.9,21.4,11.1,25.1,24.2c9.7,0,19.1,0,28.9,0c0,3.6,0,6.7,0,9.8c0,3.3,0,6.5,0,10
		c5.7,0,10.7,0,15.7,0c14.8,0,20.3,5.5,20.3,20.1c0,57.1-0.1,114.2,0.1,171.3C597.2,618.2,594.1,625.1,585,629z M580.7,612.8
		c0-60.1,0-119.8,0-179.4c-6.7,0-13.1,0-19.8,0c0,6.7,0,12.9,0,19.3c-40.1,0-79.8,0-120,0c0-6.7,0-13.1,0-19.4c-6.8,0-13.1,0-19.5,0
		c0,59.9,0,119.6,0,179.5C474.5,612.8,527.4,612.8,580.7,612.8z M484.7,413.2c-9.3,0-18.4,0-27.3,0c0,8.3,0,16,0,23.6
		c29.3,0,58.2,0,87.3,0c0-8,0-15.7,0-23.9c-9.3,0-18.4,0-27.4,0c-1.4-17.4-5.8-23.8-16.3-23.8C490.5,389,486,395.5,484.7,413.2z"/>
	<path class="st0" d="M543,483.7c4.2,3.8,8,7.1,11.9,10.6c-23.2,26.1-46.1,51.9-69.2,77.9c-12.7-11.1-25.1-22-37.9-33.2
		c3.5-4,6.8-7.8,10.4-12.1c8.7,7.6,17.1,14.9,26.1,22.7C503.9,527.7,523.3,505.9,543,483.7z"/>
	<path class="st0" d="M509,405c0,4.3-3.5,7.9-7.8,8c-4.5,0.1-8.3-3.7-8.1-8.2c0.1-4.3,3.8-7.8,8.1-7.8
		C505.4,397.1,508.9,400.7,509,405z"/>
</g>
</svg>
